<mxfile host="app.diagrams.net" modified="2023-12-17T13:29:21.791Z" agent="Mozilla/5.0 (Windows NT 10.0; Win64; x64) AppleWebKit/537.36 (KHTML, like Gecko) Chrome/120.0.0.0 Safari/537.36" etag="LhjBNJ7Ga_5SokE6Dopb" version="22.1.11" type="device">
  <diagram name="Page-1" id="ttihw4dRGTgEGV1-THFi">
    <mxGraphModel dx="794" dy="420" grid="1" gridSize="10" guides="1" tooltips="1" connect="1" arrows="1" fold="1" page="1" pageScale="1" pageWidth="850" pageHeight="1100" math="0" shadow="0">
      <root>
        <mxCell id="0" />
        <mxCell id="1" parent="0" />
        <mxCell id="5LkxkxFNtswkh9DX-RED-3" value="" style="edgeStyle=orthogonalEdgeStyle;rounded=0;orthogonalLoop=1;jettySize=auto;html=1;" edge="1" parent="1" source="5LkxkxFNtswkh9DX-RED-1" target="5LkxkxFNtswkh9DX-RED-2">
          <mxGeometry relative="1" as="geometry" />
        </mxCell>
        <mxCell id="5LkxkxFNtswkh9DX-RED-1" value="&lt;b&gt;Start&lt;/b&gt;" style="strokeWidth=2;html=1;shape=mxgraph.flowchart.start_1;whiteSpace=wrap;" vertex="1" parent="1">
          <mxGeometry x="375" y="130" width="100" height="30" as="geometry" />
        </mxCell>
        <mxCell id="5LkxkxFNtswkh9DX-RED-30" value="" style="edgeStyle=orthogonalEdgeStyle;rounded=0;orthogonalLoop=1;jettySize=auto;html=1;" edge="1" parent="1" source="5LkxkxFNtswkh9DX-RED-2" target="5LkxkxFNtswkh9DX-RED-6">
          <mxGeometry relative="1" as="geometry" />
        </mxCell>
        <mxCell id="5LkxkxFNtswkh9DX-RED-2" value="Declare int user_input,result,bool error_check=false and char user_choice" style="whiteSpace=wrap;html=1;strokeWidth=2;" vertex="1" parent="1">
          <mxGeometry x="300" y="190" width="250" height="70" as="geometry" />
        </mxCell>
        <mxCell id="5LkxkxFNtswkh9DX-RED-9" value="" style="edgeStyle=orthogonalEdgeStyle;rounded=0;orthogonalLoop=1;jettySize=auto;html=1;" edge="1" parent="1" source="5LkxkxFNtswkh9DX-RED-6" target="5LkxkxFNtswkh9DX-RED-8">
          <mxGeometry relative="1" as="geometry" />
        </mxCell>
        <mxCell id="5LkxkxFNtswkh9DX-RED-6" value="Read input from the user&lt;br&gt;user_input=user_input_function()" style="whiteSpace=wrap;html=1;strokeWidth=2;" vertex="1" parent="1">
          <mxGeometry x="300" y="300" width="250" height="60" as="geometry" />
        </mxCell>
        <mxCell id="5LkxkxFNtswkh9DX-RED-11" value="" style="edgeStyle=orthogonalEdgeStyle;rounded=0;orthogonalLoop=1;jettySize=auto;html=1;" edge="1" parent="1" source="5LkxkxFNtswkh9DX-RED-8" target="5LkxkxFNtswkh9DX-RED-10">
          <mxGeometry relative="1" as="geometry" />
        </mxCell>
        <mxCell id="5LkxkxFNtswkh9DX-RED-8" value="Calculate result based on input&lt;br&gt;result=result_function(int user_input,int &amp;amp;result, bool &amp;amp;error_checl)" style="whiteSpace=wrap;html=1;strokeWidth=2;" vertex="1" parent="1">
          <mxGeometry x="300" y="390" width="250" height="60" as="geometry" />
        </mxCell>
        <mxCell id="5LkxkxFNtswkh9DX-RED-13" value="" style="edgeStyle=orthogonalEdgeStyle;rounded=0;orthogonalLoop=1;jettySize=auto;html=1;" edge="1" parent="1" source="5LkxkxFNtswkh9DX-RED-10" target="5LkxkxFNtswkh9DX-RED-12">
          <mxGeometry relative="1" as="geometry" />
        </mxCell>
        <mxCell id="5LkxkxFNtswkh9DX-RED-10" value="error_check ?&lt;br&gt;(False)" style="whiteSpace=wrap;html=1;strokeWidth=2;" vertex="1" parent="1">
          <mxGeometry x="365" y="480" width="120" height="60" as="geometry" />
        </mxCell>
        <mxCell id="5LkxkxFNtswkh9DX-RED-15" value="" style="edgeStyle=orthogonalEdgeStyle;rounded=0;orthogonalLoop=1;jettySize=auto;html=1;" edge="1" parent="1" source="5LkxkxFNtswkh9DX-RED-12" target="5LkxkxFNtswkh9DX-RED-14">
          <mxGeometry relative="1" as="geometry" />
        </mxCell>
        <mxCell id="5LkxkxFNtswkh9DX-RED-12" value="Display &quot;&quot;Assigned value is &quot;&quot; result" style="shape=parallelogram;perimeter=parallelogramPerimeter;whiteSpace=wrap;html=1;fixedSize=1;strokeWidth=2;" vertex="1" parent="1">
          <mxGeometry x="290" y="580" width="270" height="60" as="geometry" />
        </mxCell>
        <mxCell id="5LkxkxFNtswkh9DX-RED-17" value="" style="edgeStyle=orthogonalEdgeStyle;rounded=0;orthogonalLoop=1;jettySize=auto;html=1;" edge="1" parent="1" source="5LkxkxFNtswkh9DX-RED-14" target="5LkxkxFNtswkh9DX-RED-16">
          <mxGeometry relative="1" as="geometry" />
        </mxCell>
        <mxCell id="5LkxkxFNtswkh9DX-RED-14" value="Ask the user if he wants to try again?" style="whiteSpace=wrap;html=1;strokeWidth=2;" vertex="1" parent="1">
          <mxGeometry x="365" y="670" width="120" height="60" as="geometry" />
        </mxCell>
        <mxCell id="5LkxkxFNtswkh9DX-RED-21" value="" style="edgeStyle=orthogonalEdgeStyle;rounded=0;orthogonalLoop=1;jettySize=auto;html=1;" edge="1" parent="1" source="5LkxkxFNtswkh9DX-RED-16" target="5LkxkxFNtswkh9DX-RED-20">
          <mxGeometry relative="1" as="geometry" />
        </mxCell>
        <mxCell id="5LkxkxFNtswkh9DX-RED-16" value="Read user_choice" style="shape=parallelogram;perimeter=parallelogramPerimeter;whiteSpace=wrap;html=1;fixedSize=1;strokeWidth=2;" vertex="1" parent="1">
          <mxGeometry x="345" y="760" width="160" height="60" as="geometry" />
        </mxCell>
        <mxCell id="5LkxkxFNtswkh9DX-RED-24" style="edgeStyle=orthogonalEdgeStyle;rounded=0;orthogonalLoop=1;jettySize=auto;html=1;exitX=0;exitY=0.5;exitDx=0;exitDy=0;entryX=0;entryY=0.5;entryDx=0;entryDy=0;" edge="1" parent="1" source="5LkxkxFNtswkh9DX-RED-20" target="5LkxkxFNtswkh9DX-RED-6">
          <mxGeometry relative="1" as="geometry">
            <mxPoint x="200" y="332" as="targetPoint" />
            <Array as="points">
              <mxPoint x="240" y="895" />
              <mxPoint x="240" y="330" />
            </Array>
          </mxGeometry>
        </mxCell>
        <mxCell id="5LkxkxFNtswkh9DX-RED-28" value="" style="edgeStyle=orthogonalEdgeStyle;rounded=0;orthogonalLoop=1;jettySize=auto;html=1;" edge="1" parent="1" source="5LkxkxFNtswkh9DX-RED-20" target="5LkxkxFNtswkh9DX-RED-27">
          <mxGeometry relative="1" as="geometry" />
        </mxCell>
        <mxCell id="5LkxkxFNtswkh9DX-RED-20" value="user_choice==&#39;Y&#39; || &#39;y&#39;" style="rhombus;whiteSpace=wrap;html=1;strokeWidth=2;" vertex="1" parent="1">
          <mxGeometry x="345" y="850" width="160" height="90" as="geometry" />
        </mxCell>
        <mxCell id="5LkxkxFNtswkh9DX-RED-25" value="Yes" style="text;html=1;align=center;verticalAlign=middle;resizable=0;points=[];autosize=1;strokeColor=none;fillColor=none;" vertex="1" parent="1">
          <mxGeometry x="260" y="868" width="40" height="30" as="geometry" />
        </mxCell>
        <mxCell id="5LkxkxFNtswkh9DX-RED-27" value="&lt;b&gt;END&lt;/b&gt;" style="ellipse;whiteSpace=wrap;html=1;strokeWidth=2;" vertex="1" parent="1">
          <mxGeometry x="385" y="970" width="80" height="35" as="geometry" />
        </mxCell>
        <mxCell id="5LkxkxFNtswkh9DX-RED-29" value="No" style="text;html=1;align=center;verticalAlign=middle;resizable=0;points=[];autosize=1;strokeColor=none;fillColor=none;" vertex="1" parent="1">
          <mxGeometry x="420" y="940" width="40" height="30" as="geometry" />
        </mxCell>
      </root>
    </mxGraphModel>
  </diagram>
</mxfile>
